<?xml version="1.0" encoding="utf-8"?><svg viewBox="0 0 74.7 76.6" xmlns="http://www.w3.org/2000/svg" xmlns:xlink="http://www.w3.org/1999/xlink"><style>:root>svg{display:none}:root>svg:target{display:block}</style><svg viewBox="0 0 24 24" id="arrow-down" xmlns="http://www.w3.org/2000/svg"><path d="M12 15.3l-5.6-4.5 1.2-1.6 4.4 3.5 4.4-3.5 1.2 1.6z"/></svg><svg viewBox="0 0 24 24" id="burger" xmlns="http://www.w3.org/2000/svg"><path d="M2 5h20v2H2V5zM2 11h20v2H2v-2zM2 17h20v2H2v-2z"/></svg><svg viewBox="0 0 24 24" id="calendar" xmlns="http://www.w3.org/2000/svg"><path d="M17.5 20.3H7c-1.5 0-2.8-1.2-2.8-2.8V9c0-1.5 1.2-2.8 2.8-2.8h.5V5c0-.4.3-.8.8-.8s.7.4.7.8v1.2h6.5V5c0-.4.3-.8.8-.8s.7.4.7.8v1.2h.5c1.5 0 2.8 1.2 2.8 2.8v8.5c-.1 1.5-1.3 2.8-2.8 2.8zM7 7.8c-.7 0-1.2.5-1.2 1.2v8.5c0 .7.6 1.2 1.2 1.2h10.5c.7 0 1.2-.6 1.2-1.2V9c0-.7-.6-1.2-1.2-1.2H17v.8c0 .4-.3.8-.8.8s-.8-.3-.8-.8v-.8H9v.8c0 .4-.3.8-.8.8s-.7-.5-.7-.9v-.7H7zm9.5 4H8c-.4 0-.8-.3-.8-.8s.3-.8.8-.8h8.5c.4 0 .8.3.8.8s-.4.8-.8.8z"/></svg><svg viewBox="0 0 24 24" id="calendar-plus" xmlns="http://www.w3.org/2000/svg"><path d="M19.5 23.3c-.4 0-.8-.3-.8-.8v-2.2h-2.2c-.4 0-.8-.3-.8-.8s.3-.8.8-.8h2.2v-2.2c0-.4.3-.7.8-.7s.8.3.8.7v2.2h2.2c.4 0 .8.3.8.8s-.3.8-.8.8h-2.2v2.2c-.1.4-.4.8-.8.8zm-6.5-3H7c-1.5 0-2.8-1.2-2.8-2.8V9c0-1.5 1.2-2.8 2.8-2.8h.5V5c0-.4.3-.8.8-.8s.7.4.7.8v1.2h6.5V5c0-.4.3-.8.8-.8s.7.4.7.8v1.2h.5c1.5 0 2.8 1.2 2.8 2.8v4c0 .4-.3.8-.8.8s-.8-.3-.8-.8V9c0-.7-.6-1.2-1.2-1.2H17v.8c0 .4-.3.8-.8.8s-.8-.3-.8-.8v-.8H9v.8c0 .4-.3.8-.8.8s-.7-.5-.7-.9v-.7H7c-.7 0-1.2.5-1.2 1.2v8.5c0 .7.6 1.2 1.2 1.2h6c.4 0 .8.3.8.8s-.4.8-.8.8zm3.5-8.5H8c-.4 0-.8-.3-.8-.8s.3-.8.8-.8h8.5c.4 0 .8.3.8.8s-.4.8-.8.8z"/></svg><svg viewBox="0 0 24 24" id="chat" xmlns="http://www.w3.org/2000/svg"><path d="M12 20.8c-.2 0-.4-.1-.6-.3l-2.7-3.1H6.2c-1.6 0-3-1.3-3-3V6.2c0-1.6 1.3-3 3-3H13c.4 0 .8.3.8.8s-.4.8-.8.8H6.2c-.8 0-1.5.7-1.5 1.5v8.3c0 .8.7 1.5 1.5 1.5h2.9c.2 0 .4.1.6.3l2.3 2.7 2.3-2.7c.1-.2.3-.3.6-.3h2.9c.8 0 1.5-.7 1.5-1.5V11c0-.4.3-.8.8-.8s.8.3.8.8v3.5c0 1.6-1.3 3-3 3h-2.6l-2.7 3.1c-.2.1-.4.2-.6.2zm3.3-8.6c-.7 0-1.3-.6-1.3-1.3s.6-1.3 1.3-1.3 1.3.6 1.3 1.3-.6 1.3-1.3 1.3zm0-1.5c-.1 0-.2.1-.2.2 0 .2.4.2.4 0 0-.1-.1-.2-.2-.2zM12 12.2c-.7 0-1.3-.6-1.3-1.3s.6-1.3 1.3-1.3 1.3.6 1.3 1.3-.6 1.3-1.3 1.3zm0-1.5c-.1 0-.2.1-.2.2 0 .2.4.2.4 0 0-.1-.1-.2-.2-.2zm-3.3 1.5c-.7 0-1.3-.6-1.3-1.3S8 9.6 8.7 9.6s1.3.6 1.3 1.3-.6 1.3-1.3 1.3zm0-1.5c-.1 0-.2.1-.2.2 0 .2.4.2.4 0 0-.1-.1-.2-.2-.2zM20 7.8c-.4 0-.8-.3-.8-.8V4.8H17c-.4 0-.8-.3-.8-.8s.3-.8.8-.8h2.2V1c0-.4.3-.8.8-.8s.8.3.8.8v2.2H23c.4 0 .8.3.8.8s-.4.8-.8.8h-2.2V7c0 .4-.4.8-.8.8z"/></svg><svg viewBox="0 0 24 24" id="check" xmlns="http://www.w3.org/2000/svg"><path d="M12 20.8c-4.8 0-8.8-3.9-8.8-8.7 0-4.8 3.9-8.8 8.8-8.8 4.8 0 8.8 3.9 8.8 8.8 0 4.7-4 8.7-8.8 8.7zm0-16C8 4.8 4.8 8 4.8 12s3.3 7.2 7.2 7.2c4 0 7.2-3.3 7.2-7.2 0-4-3.2-7.2-7.2-7.2zm-1 10.4s-.1 0 0 0c-.8 0-1.4-.4-1.7-1.1l-.5-1c-.2-.4 0-.8.4-1 .4-.2.8 0 1 .4l.5 1c.1.2.2.2.3.2.1 0 .2 0 .3-.2l2.5-4.4c.2-.4.7-.5 1-.3.4.2.5.7.3 1l-2.5 4.4c-.3.7-.9 1-1.6 1z"/></svg><svg viewBox="0 0 24 24" id="close-cross" xmlns="http://www.w3.org/2000/svg"><path d="M19.8 5.6l-1.4-1.4-6.4 6.4-6.4-6.4-1.4 1.4 6.4 6.4-6.4 6.4 1.4 1.4 6.4-6.4 6.4 6.4 1.4-1.4-6.4-6.4z"/></svg><svg viewBox="0 0 24 24" id="eye" xmlns="http://www.w3.org/2000/svg"><path d="M12 19c-5.9 0-8-5.6-8-7s2.1-7 8-7 8 5.6 8 7-2.1 7-8 7zm0-12.5c-5.1 0-6.5 4.9-6.5 5.5s1.4 5.5 6.5 5.5 6.5-4.9 6.5-5.5-1.4-5.5-6.5-5.5z"/><path d="M12 15c-1.7 0-3-1.3-3-3s1.3-3 3-3 3 1.3 3 3-1.3 3-3 3zm0-4.5c-.8 0-1.5.7-1.5 1.5s.7 1.5 1.5 1.5 1.5-.7 1.5-1.5-.7-1.5-1.5-1.5z"/></svg><svg viewBox="0 0 24 24" id="file-download" xmlns="http://www.w3.org/2000/svg"><path d="M18.8 9.4l-6-6-.5.6.5-.5-.2-.2H7C5.5 3.2 4.2 4.5 4.2 6v12c0 1.5 1.2 2.8 2.8 2.8h.7c.4 0 .8-.3.8-.8s-.3-.8-.8-.8H7c-.7 0-1.2-.6-1.2-1.2V6c0-.7.6-1.2 1.2-1.2h4.6V8c0 1.5 1.2 2.8 2.8 2.8h3.2V18c0 .7-.6 1.2-1.2 1.2H16c-.4 0-.8.3-.8.8s.3.8.8.8h.4c1.5 0 2.8-1.2 2.8-2.8V9.7l-.4-.3zM13.1 8V5.8l3.4 3.4h-2.2c-.7 0-1.2-.5-1.2-1.2z"/><path d="M13.7 16.9l-1.1 1.2v-4.4c0-.4-.3-.8-.8-.8-.4 0-.8.3-.8.8v4.4l-1.1-1.2c-.3-.3-.8-.3-1.1 0-.3.3-.3.8 0 1.1l2.4 2.6.1-.1-.1.1c.1.1.3.2.5.2s.4-.1.5-.2l2.4-2.6c.3-.3.3-.8 0-1.1-.2-.3-.6-.3-.9 0z"/></svg><svg fill="none" viewBox="0 0 32 32" id="file-pdf" xmlns="http://www.w3.org/2000/svg"><path d="M31.817 8.66L23.166.189a.674.674 0 00-.47-.189H9.8C8.358 0 7.184 1.106 7.184 2.465v8.612H1.958c-1.08 0-1.958.827-1.958 1.845v9.233C0 23.174.878 24 1.958 24h5.226v5.54C7.184 30.895 8.358 32 9.8 32h19.582C30.826 32 32 30.897 32 29.54V9.088a.598.598 0 00-.183-.427zm-8.96-6.999l7.102 6.954h-7.102V1.661zM1.958 22.77c-.36 0-.652-.275-.652-.613v-9.234c0-.339.293-.614.652-.614h17.635c.36 0 .652.275.652.614v9.233c0 .339-.293.614-.652.614H1.958zm28.736 6.772c0 .677-.588 1.228-1.311 1.228H9.8c-.723 0-1.311-.551-1.311-1.23V24h11.103c1.08 0 1.958-.827 1.958-1.845v-9.234c0-1.017-.878-1.844-1.958-1.844H8.49V2.465c0-.68.588-1.234 1.31-1.234h11.751v8c0 .34.292.615.653.615h8.49v19.695z" fill="#0079C1"/><path d="M7.807 15.618A1.477 1.477 0 007 15.101c-.21-.053-.658-.08-1.347-.08H3.835v5.287h1.133v-1.994h.739c.512 0 .904-.026 1.174-.076.2-.04.395-.124.588-.25.192-.127.351-.3.476-.522.125-.22.188-.494.188-.818 0-.42-.109-.764-.326-1.03zm-.97 1.455a.739.739 0 01-.354.26c-.15.055-.449.083-.895.083h-.62v-1.5h.547c.408 0 .68.012.815.036.184.031.336.11.456.234a.66.66 0 01.18.476.681.681 0 01-.129.411zM13.578 16.466a2.285 2.285 0 00-.536-.857 1.898 1.898 0 00-.846-.486c-.244-.068-.6-.101-1.067-.101h-2.07v5.286h2.131c.418 0 .753-.038 1.003-.112.334-.101.6-.242.796-.422.26-.238.46-.55.6-.934.115-.315.172-.69.172-1.125 0-.495-.06-.912-.183-1.25zm-1.102 2.17c-.077.237-.176.407-.297.51a1.07 1.07 0 01-.457.22c-.14.034-.369.051-.685.051h-.846v-3.501h.51c.46 0 .771.017.93.05.21.044.386.127.523.25.138.122.245.292.322.511.076.219.115.533.115.941 0 .409-.039.732-.115.968zM18.575 15.916v-.894H14.73v5.286h1.132V18.06h2.342v-.894h-2.342v-1.251h2.713z" fill="#0079C1"/></svg><svg viewBox="0 0 74.7 76.6" id="file_types" xmlns="http://www.w3.org/2000/svg"><path d="M50.3 29.7l-8-8.5c-.1-.1-.3-.2-.5-.2h-12c-1.3 0-2.4 1.1-2.4 2.5v8.6h-4.9c-1 0-1.8.8-1.8 1.8v9.2c0 1 .8 1.8 1.8 1.8h4.9v5.5c0 1.4 1.1 2.5 2.4 2.5H48c1.3 0 2.4-1.1 2.4-2.5V30.1c.1-.2 0-.3-.1-.4zm-8.3-7l6.6 7H42v-7zM22.6 43.8c-.3 0-.6-.3-.6-.6V34c0-.3.3-.6.6-.6H39c.3 0 .6.3.6.6v9.2c0 .3-.3.6-.6.6H22.6zm26.7 6.7c0 .7-.5 1.2-1.2 1.2H29.9c-.7 0-1.2-.6-1.2-1.2V45H39c1 0 1.8-.8 1.8-1.8V34c0-1-.8-1.8-1.8-1.8H28.6v-8.6c0-.7.5-1.2 1.2-1.2h10.9v8c0 .3.3.6.6.6h7.9v19.5z"/><path d="M28 36.6c-.2-.3-.5-.4-.7-.5-.2-.1-.6-.1-1.3-.1h-1.7v5.3h1.1v-2h.7c.5 0 .8 0 1.1-.1.2 0 .4-.1.5-.3.2-.1.3-.3.4-.5s.2-.5.2-.8c0-.4-.1-.7-.3-1zm-.9 1.5l-.3.3c-.1.1-.4.1-.8.1h-.6V37h1.3c.2 0 .3.1.4.2.1.1.2.3.2.5-.1.1-.1.3-.2.4zM33.4 37.5c-.1-.3-.3-.6-.5-.9-.2-.2-.5-.4-.8-.5-.2-.1-.6-.1-1-.1h-1.9v5.3h2c.4 0 .7 0 .9-.1.3-.1.6-.2.7-.4.2-.2.4-.5.6-.9.1-.3.2-.7.2-1.1-.1-.6-.1-1-.2-1.3zm-1.1 2.1c-.1.2-.2.4-.3.5-.1.1-.3.2-.4.2-.1 0-.3.1-.6.1h-.8v-3.5h.5c.4 0 .7 0 .9.1.2 0 .4.1.5.2.1.1.2.3.3.5.1.2.1.5.1.9 0 .5-.1.8-.2 1zM38 36.9V36h-3.6v5.3h1.1v-2.2h2.2v-.9h-2.2v-1.3H38z"/></svg><svg viewBox="0 0 24 24" id="print" xmlns="http://www.w3.org/2000/svg"><path d="M17.5 20.3H7c-1.5 0-2.8-1.2-2.8-2.8V11c0-.4.3-.8.8-.8h1.2V5c0-.4.3-.8.8-.8h10.5c.4 0 .8.3.8.8v5.2h1.2c.4 0 .8.3.8.8v6.5c-.1 1.5-1.3 2.8-2.8 2.8zM5.8 11.8v5.7c0 .7.6 1.2 1.2 1.2h10.5c.7 0 1.2-.6 1.2-1.2v-5.7H5.8zm2-1.5h9V5.8h-9v4.5zm8.7 7H8c-.4 0-.8-.3-.8-.8s.3-.7.8-.7h8.5c.4 0 .8.3.8.7s-.4.8-.8.8z"/></svg><svg viewBox="0 0 24 24" id="search" xmlns="http://www.w3.org/2000/svg"><path d="M19.2 20c-.2 0-.4-.1-.5-.2l-3.3-3.3c-1.2 1-2.7 1.6-4.4 1.6-3.9 0-7-3.1-7-7s3.1-7 7-7 7 3.1 7 7c0 1.7-.6 3.2-1.6 4.4l3.3 3.3c.1.1.2.3.2.5s-.1.4-.2.5-.3.2-.5.2zM11 5.5C8 5.5 5.5 8 5.5 11S8 16.5 11 16.5s5.5-2.5 5.5-5.5S14 5.5 11 5.5z"/></svg><svg viewBox="0 0 42 42" id="soc-facebook" xmlns="http://www.w3.org/2000/svg"><path fill-rule="evenodd" clip-rule="evenodd" d="M16.605 13.674h8.79a2.93 2.93 0 012.93 2.93v8.791a2.93 2.93 0 01-2.93 2.93h-2.921V23.43h2.319l.303-1.96h-2.622v-2.45a.548.548 0 01.655-.476c.432-.006 1.278-.005 1.278-.005l.305-1.934a15.531 15.531 0 00-2.345.017 2.199 2.199 0 00-1.393.766 2.4 2.4 0 00-.466 1.563v2.532l-1.954-.015v1.96l1.954.007v4.89h-3.903a2.93 2.93 0 01-2.93-2.93v-8.79a2.93 2.93 0 012.93-2.93z"/></svg><svg viewBox="0 0 42 42" id="soc-instagram" xmlns="http://www.w3.org/2000/svg"><path fill-rule="evenodd" clip-rule="evenodd" d="M17.581 13.674h6.838a3.907 3.907 0 013.907 3.907v6.838a3.907 3.907 0 01-3.907 3.907H17.58a3.907 3.907 0 01-3.907-3.907V17.58a3.907 3.907 0 013.907-3.907zm0 1.954h6.838a1.953 1.953 0 011.953 1.953v6.838a1.953 1.953 0 01-1.953 1.953H17.58a1.954 1.954 0 01-1.953-1.953V17.58a1.954 1.954 0 011.953-1.953zM21 17.58a3.418 3.418 0 110 6.837 3.418 3.418 0 010-6.837zm0 1.954a1.465 1.465 0 110 2.93 1.465 1.465 0 010-2.93z"/></svg><svg viewBox="0 0 42 42" id="soc-vkontakte" xmlns="http://www.w3.org/2000/svg"><path fill-rule="evenodd" clip-rule="evenodd" d="M22.46 17.357v3.181a.332.332 0 00.415.343c.293-.02.956-2.735 1.25-3.327a1.88 1.88 0 01.72-.807.595.595 0 01.359-.152h2.811a.454.454 0 01.293.71c-.22.49-2.105 3.527-2.203 3.65a1.281 1.281 0 00-.231.537c.038.23.145.443.305.613.195.22 1.773 1.958 1.92 2.105.14.16.233.354.27.562a.745.745 0 01-.782.599H25.3a2.734 2.734 0 01-.93-.552c-.22-.195-1.035-1.125-1.157-1.247a.397.397 0 00-.343-.142c-.146 0-.424.015-.412.572.035.385-.046.773-.232 1.112a.968.968 0 01-.72.269c-1 .06-1.993-.188-2.846-.71-1.538-.955-3.288-3.505-4.103-5.132a6.362 6.362 0 01-.879-2.652c.05-.172.05-.293.221-.293h2.54c.142.07.262.18.343.318.073.098.631 1.77.802 2.064.171.294 1.014 1.905 1.471 1.905a.586.586 0 00.463-.684v-2.13a1.894 1.894 0 00-.955-.976 1.231 1.231 0 01.905-.488c.587-.025 2.056-.025 2.374.023a.765.765 0 01.617.729z"/></svg><svg viewBox="0 0 42 42" id="soc-whatsapp" xmlns="http://www.w3.org/2000/svg"><path fill-rule="evenodd" clip-rule="evenodd" d="M21 28.326a7.28 7.28 0 01-3.897-1.143l-3.429 1.143 1.143-3.43A7.312 7.312 0 1121 28.326zm1.592-6.216c.487.159.983.29 1.485.395a.397.397 0 01.332.465v.276a.644.644 0 01-.235.53c-.24.244-.525.44-.84.578a3.399 3.399 0 01-2.598-.781 8.537 8.537 0 01-1.28-1.05 9.096 9.096 0 01-1.054-1.28 3.398 3.398 0 01-.772-2.594c.138-.313.334-.596.576-.836a.605.605 0 01.528-.23h.283a.407.407 0 01.46.346c.146.578.253.996.4 1.465.058.196-.01.242-.166.36-.098.075-.176.13-.254.188a.35.35 0 00-.166.496c.25.48.568.92.947 1.307.386.38.827.698 1.31.945a.357.357 0 00.497-.165c.059-.08.108-.153.186-.255a.28.28 0 01.252-.186.278.278 0 01.11.019v.006z"/></svg><svg viewBox="0 0 42 42" id="soc-youtube" xmlns="http://www.w3.org/2000/svg"><path fill-rule="evenodd" clip-rule="evenodd" d="M24.419 27.349H17.58a4.08 4.08 0 01-3.907-4.233v-4.233a4.08 4.08 0 013.907-4.232h6.838a4.08 4.08 0 013.907 4.233v4.232a4.08 4.08 0 01-3.907 4.233zm1.953-8.542a2.083 2.083 0 00-1.953-2.193H17.58a2.083 2.083 0 00-1.953 2.193v4.385a2.084 2.084 0 001.953 2.192h6.838a2.083 2.083 0 001.953-2.192v-4.385zm-6.837-.262L23.442 21l-3.907 2.453v-4.908z"/></svg></svg>