<?xml version="1.0" encoding="utf-8"?><svg viewBox="0 0 74.7 76.6" xmlns="http://www.w3.org/2000/svg" xmlns:xlink="http://www.w3.org/1999/xlink"><style>:root>svg{display:none}:root>svg:target{display:block}</style><svg viewBox="0 0 24 24" id="arrow-down" xmlns="http://www.w3.org/2000/svg"><path d="M12 15.3l-5.6-4.5 1.2-1.6 4.4 3.5 4.4-3.5 1.2 1.6z"/></svg><svg viewBox="0 0 24 24" id="burger" xmlns="http://www.w3.org/2000/svg"><path d="M2 5h20v2H2V5zM2 11h20v2H2v-2zM2 17h20v2H2v-2z"/></svg><svg viewBox="0 0 24 24" id="calendar" xmlns="http://www.w3.org/2000/svg"><path d="M17.5 20.3H7c-1.5 0-2.8-1.2-2.8-2.8V9c0-1.5 1.2-2.8 2.8-2.8h.5V5c0-.4.3-.8.8-.8s.7.4.7.8v1.2h6.5V5c0-.4.3-.8.8-.8s.7.4.7.8v1.2h.5c1.5 0 2.8 1.2 2.8 2.8v8.5c-.1 1.5-1.3 2.8-2.8 2.8zM7 7.8c-.7 0-1.2.5-1.2 1.2v8.5c0 .7.6 1.2 1.2 1.2h10.5c.7 0 1.2-.6 1.2-1.2V9c0-.7-.6-1.2-1.2-1.2H17v.8c0 .4-.3.8-.8.8s-.8-.3-.8-.8v-.8H9v.8c0 .4-.3.8-.8.8s-.7-.5-.7-.9v-.7H7zm9.5 4H8c-.4 0-.8-.3-.8-.8s.3-.8.8-.8h8.5c.4 0 .8.3.8.8s-.4.8-.8.8z"/></svg><svg viewBox="0 0 24 24" id="calendar-plus" xmlns="http://www.w3.org/2000/svg"><path d="M19.5 23.3c-.4 0-.8-.3-.8-.8v-2.2h-2.2c-.4 0-.8-.3-.8-.8s.3-.8.8-.8h2.2v-2.2c0-.4.3-.7.8-.7s.8.3.8.7v2.2h2.2c.4 0 .8.3.8.8s-.3.8-.8.8h-2.2v2.2c-.1.4-.4.8-.8.8zm-6.5-3H7c-1.5 0-2.8-1.2-2.8-2.8V9c0-1.5 1.2-2.8 2.8-2.8h.5V5c0-.4.3-.8.8-.8s.7.4.7.8v1.2h6.5V5c0-.4.3-.8.8-.8s.7.4.7.8v1.2h.5c1.5 0 2.8 1.2 2.8 2.8v4c0 .4-.3.8-.8.8s-.8-.3-.8-.8V9c0-.7-.6-1.2-1.2-1.2H17v.8c0 .4-.3.8-.8.8s-.8-.3-.8-.8v-.8H9v.8c0 .4-.3.8-.8.8s-.7-.5-.7-.9v-.7H7c-.7 0-1.2.5-1.2 1.2v8.5c0 .7.6 1.2 1.2 1.2h6c.4 0 .8.3.8.8s-.4.8-.8.8zm3.5-8.5H8c-.4 0-.8-.3-.8-.8s.3-.8.8-.8h8.5c.4 0 .8.3.8.8s-.4.8-.8.8z"/></svg><svg viewBox="0 0 24 24" id="chat" xmlns="http://www.w3.org/2000/svg"><path d="M12 20.8c-.2 0-.4-.1-.6-.3l-2.7-3.1H6.2c-1.6 0-3-1.3-3-3V6.2c0-1.6 1.3-3 3-3H13c.4 0 .8.3.8.8s-.4.8-.8.8H6.2c-.8 0-1.5.7-1.5 1.5v8.3c0 .8.7 1.5 1.5 1.5h2.9c.2 0 .4.1.6.3l2.3 2.7 2.3-2.7c.1-.2.3-.3.6-.3h2.9c.8 0 1.5-.7 1.5-1.5V11c0-.4.3-.8.8-.8s.8.3.8.8v3.5c0 1.6-1.3 3-3 3h-2.6l-2.7 3.1c-.2.1-.4.2-.6.2zm3.3-8.6c-.7 0-1.3-.6-1.3-1.3s.6-1.3 1.3-1.3 1.3.6 1.3 1.3-.6 1.3-1.3 1.3zm0-1.5c-.1 0-.2.1-.2.2 0 .2.4.2.4 0 0-.1-.1-.2-.2-.2zM12 12.2c-.7 0-1.3-.6-1.3-1.3s.6-1.3 1.3-1.3 1.3.6 1.3 1.3-.6 1.3-1.3 1.3zm0-1.5c-.1 0-.2.1-.2.2 0 .2.4.2.4 0 0-.1-.1-.2-.2-.2zm-3.3 1.5c-.7 0-1.3-.6-1.3-1.3S8 9.6 8.7 9.6s1.3.6 1.3 1.3-.6 1.3-1.3 1.3zm0-1.5c-.1 0-.2.1-.2.2 0 .2.4.2.4 0 0-.1-.1-.2-.2-.2zM20 7.8c-.4 0-.8-.3-.8-.8V4.8H17c-.4 0-.8-.3-.8-.8s.3-.8.8-.8h2.2V1c0-.4.3-.8.8-.8s.8.3.8.8v2.2H23c.4 0 .8.3.8.8s-.4.8-.8.8h-2.2V7c0 .4-.4.8-.8.8z"/></svg><svg viewBox="0 0 24 24" id="check" xmlns="http://www.w3.org/2000/svg"><path d="M12 20.8c-4.8 0-8.8-3.9-8.8-8.7 0-4.8 3.9-8.8 8.8-8.8 4.8 0 8.8 3.9 8.8 8.8 0 4.7-4 8.7-8.8 8.7zm0-16C8 4.8 4.8 8 4.8 12s3.3 7.2 7.2 7.2c4 0 7.2-3.3 7.2-7.2 0-4-3.2-7.2-7.2-7.2zm-1 10.4s-.1 0 0 0c-.8 0-1.4-.4-1.7-1.1l-.5-1c-.2-.4 0-.8.4-1 .4-.2.8 0 1 .4l.5 1c.1.2.2.2.3.2.1 0 .2 0 .3-.2l2.5-4.4c.2-.4.7-.5 1-.3.4.2.5.7.3 1l-2.5 4.4c-.3.7-.9 1-1.6 1z"/></svg><svg viewBox="0 0 24 24" id="close-cross" xmlns="http://www.w3.org/2000/svg"><path d="M19.8 5.6l-1.4-1.4-6.4 6.4-6.4-6.4-1.4 1.4 6.4 6.4-6.4 6.4 1.4 1.4 6.4-6.4 6.4 6.4 1.4-1.4-6.4-6.4z"/></svg><svg viewBox="0 0 24 24" id="eye" xmlns="http://www.w3.org/2000/svg"><path d="M12 19c-5.9 0-8-5.6-8-7s2.1-7 8-7 8 5.6 8 7-2.1 7-8 7zm0-12.5c-5.1 0-6.5 4.9-6.5 5.5s1.4 5.5 6.5 5.5 6.5-4.9 6.5-5.5-1.4-5.5-6.5-5.5z"/><path d="M12 15c-1.7 0-3-1.3-3-3s1.3-3 3-3 3 1.3 3 3-1.3 3-3 3zm0-4.5c-.8 0-1.5.7-1.5 1.5s.7 1.5 1.5 1.5 1.5-.7 1.5-1.5-.7-1.5-1.5-1.5z"/></svg><svg viewBox="0 0 24 24" id="file-download" xmlns="http://www.w3.org/2000/svg"><path d="M18.8 9.4l-6-6-.5.6.5-.5-.2-.2H7C5.5 3.2 4.2 4.5 4.2 6v12c0 1.5 1.2 2.8 2.8 2.8h.7c.4 0 .8-.3.8-.8s-.3-.8-.8-.8H7c-.7 0-1.2-.6-1.2-1.2V6c0-.7.6-1.2 1.2-1.2h4.6V8c0 1.5 1.2 2.8 2.8 2.8h3.2V18c0 .7-.6 1.2-1.2 1.2H16c-.4 0-.8.3-.8.8s.3.8.8.8h.4c1.5 0 2.8-1.2 2.8-2.8V9.7l-.4-.3zM13.1 8V5.8l3.4 3.4h-2.2c-.7 0-1.2-.5-1.2-1.2z"/><path d="M13.7 16.9l-1.1 1.2v-4.4c0-.4-.3-.8-.8-.8-.4 0-.8.3-.8.8v4.4l-1.1-1.2c-.3-.3-.8-.3-1.1 0-.3.3-.3.8 0 1.1l2.4 2.6.1-.1-.1.1c.1.1.3.2.5.2s.4-.1.5-.2l2.4-2.6c.3-.3.3-.8 0-1.1-.2-.3-.6-.3-.9 0z"/></svg><svg viewBox="0 0 74.7 76.6" id="file_types" xmlns="http://www.w3.org/2000/svg"><path d="M50.3 29.7l-8-8.5c-.1-.1-.3-.2-.5-.2h-12c-1.3 0-2.4 1.1-2.4 2.5v8.6h-4.9c-1 0-1.8.8-1.8 1.8v9.2c0 1 .8 1.8 1.8 1.8h4.9v5.5c0 1.4 1.1 2.5 2.4 2.5H48c1.3 0 2.4-1.1 2.4-2.5V30.1c.1-.2 0-.3-.1-.4zm-8.3-7l6.6 7H42v-7zM22.6 43.8c-.3 0-.6-.3-.6-.6V34c0-.3.3-.6.6-.6H39c.3 0 .6.3.6.6v9.2c0 .3-.3.6-.6.6H22.6zm26.7 6.7c0 .7-.5 1.2-1.2 1.2H29.9c-.7 0-1.2-.6-1.2-1.2V45H39c1 0 1.8-.8 1.8-1.8V34c0-1-.8-1.8-1.8-1.8H28.6v-8.6c0-.7.5-1.2 1.2-1.2h10.9v8c0 .3.3.6.6.6h7.9v19.5z"/><path d="M28 36.6c-.2-.3-.5-.4-.7-.5-.2-.1-.6-.1-1.3-.1h-1.7v5.3h1.1v-2h.7c.5 0 .8 0 1.1-.1.2 0 .4-.1.5-.3.2-.1.3-.3.4-.5s.2-.5.2-.8c0-.4-.1-.7-.3-1zm-.9 1.5l-.3.3c-.1.1-.4.1-.8.1h-.6V37h1.3c.2 0 .3.1.4.2.1.1.2.3.2.5-.1.1-.1.3-.2.4zM33.4 37.5c-.1-.3-.3-.6-.5-.9-.2-.2-.5-.4-.8-.5-.2-.1-.6-.1-1-.1h-1.9v5.3h2c.4 0 .7 0 .9-.1.3-.1.6-.2.7-.4.2-.2.4-.5.6-.9.1-.3.2-.7.2-1.1-.1-.6-.1-1-.2-1.3zm-1.1 2.1c-.1.2-.2.4-.3.5-.1.1-.3.2-.4.2-.1 0-.3.1-.6.1h-.8v-3.5h.5c.4 0 .7 0 .9.1.2 0 .4.1.5.2.1.1.2.3.3.5.1.2.1.5.1.9 0 .5-.1.8-.2 1zM38 36.9V36h-3.6v5.3h1.1v-2.2h2.2v-.9h-2.2v-1.3H38z"/></svg><svg viewBox="0 0 24 24" id="print" xmlns="http://www.w3.org/2000/svg"><path d="M17.5 20.3H7c-1.5 0-2.8-1.2-2.8-2.8V11c0-.4.3-.8.8-.8h1.2V5c0-.4.3-.8.8-.8h10.5c.4 0 .8.3.8.8v5.2h1.2c.4 0 .8.3.8.8v6.5c-.1 1.5-1.3 2.8-2.8 2.8zM5.8 11.8v5.7c0 .7.6 1.2 1.2 1.2h10.5c.7 0 1.2-.6 1.2-1.2v-5.7H5.8zm2-1.5h9V5.8h-9v4.5zm8.7 7H8c-.4 0-.8-.3-.8-.8s.3-.7.8-.7h8.5c.4 0 .8.3.8.7s-.4.8-.8.8z"/></svg><svg viewBox="0 0 24 24" id="search" xmlns="http://www.w3.org/2000/svg"><path d="M19.2 20c-.2 0-.4-.1-.5-.2l-3.3-3.3c-1.2 1-2.7 1.6-4.4 1.6-3.9 0-7-3.1-7-7s3.1-7 7-7 7 3.1 7 7c0 1.7-.6 3.2-1.6 4.4l3.3 3.3c.1.1.2.3.2.5s-.1.4-.2.5-.3.2-.5.2zM11 5.5C8 5.5 5.5 8 5.5 11S8 16.5 11 16.5s5.5-2.5 5.5-5.5S14 5.5 11 5.5z"/></svg></svg>