<?xml version="1.0" standalone="no"?>
<!DOCTYPE svg PUBLIC "-//W3C//DTD SVG 20010904//EN"
 "http://www.w3.org/TR/2001/REC-SVG-20010904/DTD/svg10.dtd">
<svg version="1.0" xmlns="http://www.w3.org/2000/svg"
 width="70.000000pt" height="70.000000pt" viewBox="0 0 70.000000 70.000000"
 preserveAspectRatio="xMidYMid meet">
<metadata>
Created by potrace 1.14, written by Peter Selinger 2001-2017
</metadata>
<g transform="translate(0.000000,70.000000) scale(0.100000,-0.100000)"
fill="#000000" stroke="none">
<path d="M276 652 c-3 -5 -40 -9 -82 -9 -63 0 -80 -3 -90 -18 -16 -22 -5 -40
31 -49 20 -5 25 -13 25 -39 0 -27 -6 -36 -40 -55 -24 -13 -38 -28 -34 -34 4
-6 3 -8 -3 -5 -18 11 -71 -66 -68 -98 7 -62 45 -121 71 -111 8 3 11 0 8 -9 -4
-10 9 -22 40 -37 25 -12 49 -30 52 -40 8 -25 48 -64 85 -84 36 -18 92 -20 131
-5 32 12 80 56 97 89 6 12 26 28 44 36 68 29 126 99 132 161 4 37 -70 122
-127 147 -16 7 -31 23 -35 36 -6 26 14 55 33 48 16 -6 28 11 30 42 1 17 -5 22
-23 22 -12 0 -23 5 -23 11 0 8 -4 8 -12 2 -7 -6 -32 -10 -56 -10 -24 0 -47 -4
-52 -9 -13 -13 0 -63 15 -58 16 7 46 -23 39 -40 -3 -8 -16 -11 -37 -8 -31 5
-32 4 -14 -15 27 -30 20 -35 -9 -6 -22 22 -32 25 -70 20 -41 -4 -44 -3 -44 19
0 17 7 25 25 30 25 6 43 40 28 54 -4 5 -17 10 -28 12 -11 1 -23 7 -26 12 -4 4
-9 4 -13 -2z m52 -40 c2 -7 -5 -12 -17 -12 -36 0 -42 -31 -41 -234 1 -181 3
-195 23 -225 26 -36 77 -54 113 -40 17 6 23 6 19 -1 -3 -6 -13 -10 -21 -10 -8
0 -14 -4 -14 -9 0 -5 -24 -8 -53 -8 -64 3 -109 31 -138 89 -19 37 -21 61 -23
234 -1 126 2 195 9 197 5 2 -5 4 -23 4 -35 0 -53 10 -35 21 21 13 196 8 201
-6z m228 6 c9 -9 -6 -29 -16 -23 -5 3 -20 0 -35 -7 -19 -9 -28 -9 -37 0 -7 7
-20 12 -30 12 -20 0 -25 16 -7 22 18 6 118 2 125 -4z m-432 -186 c3 -5 -1 -9
-9 -9 -8 0 -12 4 -9 9 3 4 7 8 9 8 2 0 6 -4 9 -8z m476 4 c0 -2 -7 -7 -16 -10
-8 -3 -12 -2 -9 4 6 10 25 14 25 6z m-50 -16 c0 -5 -5 -10 -11 -10 -5 0 -7 5
-4 10 3 6 8 10 11 10 2 0 4 -4 4 -10z m-55 -12 c5 4 5 1 1 -6 -4 -7 -12 -9
-18 -6 -8 5 -9 1 -4 -11 5 -15 4 -16 -8 -6 -8 7 -12 19 -9 27 4 10 9 11 18 4
6 -5 16 -6 20 -2z m-115 -24 c0 -3 -5 -2 -11 1 -6 4 -13 -3 -16 -16 l-6 -23
-9 23 c-11 31 -1 44 23 31 10 -6 19 -13 19 -16z m60 12 c0 -7 -40 -14 -44 -7
-3 4 6 8 20 9 13 1 24 0 24 -2z m-74 -108 c4 -6 3 -8 -4 -4 -5 3 -12 1 -14 -6
-3 -7 -10 -8 -17 -4 -11 7 -11 10 0 17 19 12 27 11 35 -3z m39 -6 c-3 -3 -11
0 -18 7 -9 10 -8 11 6 5 10 -3 15 -9 12 -12z m75 -7 c0 -8 -4 -15 -9 -15 -13
0 -22 16 -14 24 11 11 23 6 23 -9z m-346 -23 c3 -5 -1 -9 -9 -9 -8 0 -12 4 -9
9 3 4 7 8 9 8 2 0 6 -4 9 -8z m447 -9 c12 -16 12 -17 -1 -7 -8 6 -22 14 -30
17 -13 5 -12 6 1 6 9 1 23 -7 30 -16z m-130 -26 c-10 -9 -11 -8 -5 6 3 10 9
15 12 12 3 -3 0 -11 -7 -18z m-30 -44 c-25 -31 -21 -39 11 -23 l23 12 -22 -23
c-27 -28 -87 -30 -112 -4 -15 17 -15 17 2 12 12 -4 17 -1 18 11 0 10 3 12 6 5
8 -21 38 -15 63 12 31 33 37 32 11 -2z"/>
<path d="M215 560 c-3 -5 -2 -10 4 -10 5 0 13 5 16 10 3 6 2 10 -4 10 -5 0
-13 -4 -16 -10z"/>
</g>
</svg>
