<?xml version="1.0" encoding="utf-8"?>
<!-- Generator: Adobe Illustrator 24.2.1, SVG Export Plug-In . SVG Version: 6.00 Build 0)  -->
<svg version="1.1" xmlns="http://www.w3.org/2000/svg" xmlns:xlink="http://www.w3.org/1999/xlink" x="0px" y="0px" viewBox="0 0 24 24" style="enable-background:new 0 0 24 24;" xml:space="preserve">
<path d="M19.5,23.3c-0.4,0-0.8-0.3-0.8-0.8v-2.2h-2.2c-0.4,0-0.8-0.3-0.8-0.8s0.3-0.8,0.8-0.8h2.2v-2.2
	c0-0.4,0.3-0.7,0.8-0.7s0.8,0.3,0.8,0.7v2.2h2.2c0.4,0,0.8,0.3,0.8,0.8s-0.3,0.8-0.8,0.8h-2.2v2.2C20.2,22.9,19.9,23.3,19.5,23.3z
	 M13,20.3H7c-1.5,0-2.8-1.2-2.8-2.8V9c0-1.5,1.2-2.8,2.8-2.8h0.5V5c0-0.4,0.3-0.8,0.8-0.8S9,4.6,9,5v1.2h6.5V5
	c0-0.4,0.3-0.8,0.8-0.8S17,4.6,17,5v1.2h0.5c1.5,0,2.8,1.2,2.8,2.8v4c0,0.4-0.3,0.8-0.8,0.8s-0.8-0.3-0.8-0.8V9
	c0-0.7-0.6-1.2-1.2-1.2H17v0.8c0,0.4-0.3,0.8-0.8,0.8s-0.8-0.3-0.8-0.8V7.8H9v0.8c0,0.4-0.3,0.8-0.8,0.8S7.5,8.9,7.5,8.5V7.8H7
	C6.3,7.8,5.8,8.3,5.8,9v8.5c0,0.7,0.6,1.2,1.2,1.2h6c0.4,0,0.8,0.3,0.8,0.8S13.4,20.3,13,20.3z M16.5,11.8H8c-0.4,0-0.8-0.3-0.8-0.8
	s0.3-0.8,0.8-0.8h8.5c0.4,0,0.8,0.3,0.8,0.8S16.9,11.8,16.5,11.8z"/>
</svg>
