<?xml version="1.0" encoding="utf-8"?>
<!-- Generator: Adobe Illustrator 24.2.1, SVG Export Plug-In . SVG Version: 6.00 Build 0)  -->
<svg version="1.1" xmlns="http://www.w3.org/2000/svg" xmlns:xlink="http://www.w3.org/1999/xlink" x="0px" y="0px" viewBox="0 0 24 24" style="enable-background:new 0 0 24 24;" xml:space="preserve">
<path d="M17.5,20.3H7c-1.5,0-2.8-1.2-2.8-2.8V9c0-1.5,1.2-2.8,2.8-2.8h0.5V5c0-0.4,0.3-0.8,0.8-0.8S9,4.6,9,5v1.2h6.5V5
	c0-0.4,0.3-0.8,0.8-0.8S17,4.6,17,5v1.2h0.5c1.5,0,2.8,1.2,2.8,2.8v8.5C20.2,19,19,20.3,17.5,20.3z M7,7.8C6.3,7.8,5.8,8.3,5.8,9
	v8.5c0,0.7,0.6,1.2,1.2,1.2h10.5c0.7,0,1.2-0.6,1.2-1.2V9c0-0.7-0.6-1.2-1.2-1.2H17v0.8c0,0.4-0.3,0.8-0.8,0.8s-0.8-0.3-0.8-0.8V7.8
	H9v0.8c0,0.4-0.3,0.8-0.8,0.8S7.5,8.9,7.5,8.5V7.8H7z M16.5,11.8H8c-0.4,0-0.8-0.3-0.8-0.8s0.3-0.8,0.8-0.8h8.5
	c0.4,0,0.8,0.3,0.8,0.8S16.9,11.8,16.5,11.8z"/>
</svg>
