<?xml version="1.0" encoding="utf-8"?>
<!-- Generator: Adobe Illustrator 24.2.1, SVG Export Plug-In . SVG Version: 6.00 Build 0)  -->
<svg version="1.1" xmlns="http://www.w3.org/2000/svg" xmlns:xlink="http://www.w3.org/1999/xlink" x="0px" y="0px" viewBox="0 0 24 24" style="enable-background:new 0 0 24 24;" xml:space="preserve">
<path d="M12,20.8c-4.8,0-8.8-3.9-8.8-8.7c0-4.8,3.9-8.8,8.8-8.8c4.8,0,8.8,3.9,8.8,8.8C20.8,16.8,16.8,20.8,12,20.8z
	 M12,4.8C8,4.8,4.8,8,4.8,12c0,4,3.3,7.2,7.2,7.2c4,0,7.2-3.3,7.2-7.2C19.2,8,16,4.8,12,4.8z M11,15.2C11,15.2,10.9,15.2,11,15.2
	c-0.8,0-1.4-0.4-1.7-1.1l-0.5-1c-0.2-0.4,0-0.8,0.4-1c0.4-0.2,0.8,0,1,0.4l0.5,1c0.1,0.2,0.2,0.2,0.3,0.2c0.1,0,0.2,0,0.3-0.2
	l2.5-4.4c0.2-0.4,0.7-0.5,1-0.3c0.4,0.2,0.5,0.7,0.3,1l-2.5,4.4C12.3,14.9,11.7,15.2,11,15.2z"/>
</svg>
