<?xml version="1.0" encoding="utf-8"?>
<!-- Generator: Adobe Illustrator 24.2.1, SVG Export Plug-In . SVG Version: 6.00 Build 0)  -->
<svg version="1.1" xmlns="http://www.w3.org/2000/svg" xmlns:xlink="http://www.w3.org/1999/xlink" x="0px" y="0px" viewBox="0 0 24 24" style="enable-background:new 0 0 24 24;" xml:space="preserve">
<path d="M12,19c-5.9,0-8-5.6-8-7s2.1-7,8-7s8,5.6,8,7S17.9,19,12,19z M12,6.5c-5.1,0-6.5,4.9-6.5,5.5s1.4,5.5,6.5,5.5
	c5.1,0,6.5-4.9,6.5-5.5S17.1,6.5,12,6.5z"/>
<path d="M12,15c-1.7,0-3-1.3-3-3s1.3-3,3-3s3,1.3,3,3S13.7,15,12,15z M12,10.5c-0.8,0-1.5,0.7-1.5,1.5s0.7,1.5,1.5,1.5
	s1.5-0.7,1.5-1.5S12.8,10.5,12,10.5z"/>
</svg>
