<?xml version="1.0" encoding="utf-8"?>
<!-- Generator: Adobe Illustrator 24.2.1, SVG Export Plug-In . SVG Version: 6.00 Build 0)  -->
<svg version="1.1" xmlns="http://www.w3.org/2000/svg" xmlns:xlink="http://www.w3.org/1999/xlink" x="0px" y="0px" viewBox="0 0 74.7 76.6" style="enable-background:new 0 0 74.7 76.6;" xml:space="preserve">
<path d="M50.3,29.7l-8-8.5C42.2,21.1,42,21,41.8,21h-12c-1.3,0-2.4,1.1-2.4,2.5v8.6h-4.9c-1,0-1.8,0.8-1.8,1.8v9.2
	c0,1,0.8,1.8,1.8,1.8h4.9v5.5c0,1.4,1.1,2.5,2.4,2.5H48c1.3,0,2.4-1.1,2.4-2.5V30.1C50.5,29.9,50.4,29.8,50.3,29.7z M42,22.7l6.6,7
	H42V22.7z M22.6,43.8c-0.3,0-0.6-0.3-0.6-0.6v-9.2c0-0.3,0.3-0.6,0.6-0.6H39c0.3,0,0.6,0.3,0.6,0.6v9.2c0,0.3-0.3,0.6-0.6,0.6H22.6z
	 M49.3,50.5c0,0.7-0.5,1.2-1.2,1.2H29.9c-0.7,0-1.2-0.6-1.2-1.2V45H39c1,0,1.8-0.8,1.8-1.8v-9.2c0-1-0.8-1.8-1.8-1.8H28.6v-8.6
	c0-0.7,0.5-1.2,1.2-1.2h10.9v8c0,0.3,0.3,0.6,0.6,0.6h7.9V50.5z"/>
<path d="M28,36.6c-0.2-0.3-0.5-0.4-0.7-0.5C27.1,36,26.7,36,26,36h-1.7v5.3h1.1v-2h0.7c0.5,0,0.8,0,1.1-0.1
	c0.2,0,0.4-0.1,0.5-0.3c0.2-0.1,0.3-0.3,0.4-0.5s0.2-0.5,0.2-0.8C28.3,37.2,28.2,36.9,28,36.6z M27.1,38.1c-0.1,0.1-0.2,0.2-0.3,0.3
	c-0.1,0.1-0.4,0.1-0.8,0.1h-0.6v-1.5h0.5c0.4,0,0.6,0,0.8,0c0.2,0,0.3,0.1,0.4,0.2c0.1,0.1,0.2,0.3,0.2,0.5
	C27.2,37.8,27.2,38,27.1,38.1z"/>
<path d="M33.4,37.5c-0.1-0.3-0.3-0.6-0.5-0.9c-0.2-0.2-0.5-0.4-0.8-0.5c-0.2-0.1-0.6-0.1-1-0.1h-1.9v5.3h2
	c0.4,0,0.7,0,0.9-0.1c0.3-0.1,0.6-0.2,0.7-0.4c0.2-0.2,0.4-0.5,0.6-0.9c0.1-0.3,0.2-0.7,0.2-1.1C33.5,38.2,33.5,37.8,33.4,37.5z
	 M32.3,39.6c-0.1,0.2-0.2,0.4-0.3,0.5c-0.1,0.1-0.3,0.2-0.4,0.2c-0.1,0-0.3,0.1-0.6,0.1h-0.8v-3.5h0.5c0.4,0,0.7,0,0.9,0.1
	c0.2,0,0.4,0.1,0.5,0.2c0.1,0.1,0.2,0.3,0.3,0.5c0.1,0.2,0.1,0.5,0.1,0.9C32.5,39.1,32.4,39.4,32.3,39.6z"/>
<path d="M38,36.9V36h-3.6v5.3h1.1v-2.2h2.2v-0.9h-2.2v-1.3H38z"/>
</svg>
