<svg width="32" height="32" viewBox="0 0 32 32" fill="none" xmlns="http://www.w3.org/2000/svg">
<path d="M31.8175 8.65981L23.1659 0.188625C23.0427 0.068125 22.8728 0 22.6953 0H9.8008C8.35773 0 7.18369 1.10588 7.18369 2.46513V11.0769H1.95802C0.878361 11.0769 0 11.9044 0 12.9215V22.1555C0 23.1726 0.878361 24 1.95802 24H7.18369V29.5392C7.18369 30.8961 8.35773 32 9.8008 32H29.3829C30.826 32 32 30.8967 32 29.5406V9.08656C32 8.92744 31.9345 8.7745 31.8175 8.65981ZM22.8572 1.66131L29.9593 8.61537H22.8572V1.66131ZM1.95802 22.7693C1.59853 22.7693 1.30617 22.4939 1.30617 22.1555V12.9215C1.30617 12.5831 1.5986 12.3077 1.95802 12.3077H19.593C19.9525 12.3077 20.2449 12.5831 20.2449 12.9215V22.1555C20.2449 22.4939 19.9525 22.7693 19.593 22.7693H1.95802ZM30.6938 29.5406C30.6938 30.2181 30.1057 30.7693 29.3828 30.7693H9.8008C9.07791 30.7693 8.48979 30.2175 8.48979 29.5392V24H19.593C20.6727 24 21.5511 23.1726 21.5511 22.1555V12.9215C21.5511 11.9044 20.6727 11.0769 19.593 11.0769H8.48979V2.46513C8.48979 1.78444 9.07791 1.23075 9.8008 1.23075H21.551V9.23075C21.551 9.57063 21.8434 9.84612 22.204 9.84612H30.6938V29.5406Z" fill="#0079C1"/>
<path d="M7.80742 15.6184C7.5906 15.3527 7.32145 15.1803 7.00003 15.1009C6.79084 15.0481 6.34187 15.0216 5.65307 15.0216H3.83546V20.3077H4.96812V18.3137H5.70666C6.21943 18.3137 6.61102 18.2884 6.88144 18.2379C7.08042 18.1971 7.27621 18.1136 7.46882 17.9873C7.66144 17.8611 7.82022 17.6874 7.94525 17.4663C8.07027 17.2452 8.13275 16.9723 8.13275 16.6478C8.13269 16.2271 8.02424 15.884 7.80742 15.6184ZM6.8374 17.0733C6.75197 17.1911 6.63397 17.2776 6.48341 17.3329C6.33285 17.3882 6.03445 17.4159 5.58801 17.4159H4.96812V15.9159H5.51531C5.92348 15.9159 6.19516 15.9279 6.33033 15.9519C6.51399 15.9832 6.66581 16.0613 6.78566 16.1863C6.90558 16.3113 6.96554 16.47 6.96554 16.6623C6.96561 16.8185 6.92283 16.9555 6.8374 17.0733Z" fill="#0079C1"/>
<path d="M13.5778 16.4657C13.4554 16.128 13.2768 15.8426 13.0421 15.6094C12.8074 15.3762 12.5255 15.2139 12.1964 15.1226C11.9516 15.0552 11.5957 15.0216 11.1289 15.0216H9.05867V20.3077H11.1901C11.6085 20.3077 11.9426 20.2704 12.1926 20.1959C12.5268 20.0949 12.7921 19.9543 12.9885 19.774C13.2487 19.536 13.449 19.2247 13.5893 18.8401C13.7041 18.5252 13.7615 18.1502 13.7615 17.7151C13.7615 17.2199 13.7003 16.8035 13.5778 16.4657ZM12.4757 18.6364C12.3992 18.8733 12.3004 19.0433 12.1792 19.1466C12.058 19.25 11.9056 19.3233 11.7219 19.3666C11.5817 19.4002 11.3533 19.4171 11.037 19.4171H10.1913V15.9159H10.7003C11.1619 15.9159 11.472 15.9327 11.6301 15.9664C11.8418 16.0096 12.0166 16.0926 12.1543 16.2152C12.2921 16.3378 12.3992 16.5084 12.4757 16.7272C12.5523 16.9459 12.5906 17.2596 12.5906 17.6683C12.5906 18.0769 12.5523 18.3996 12.4757 18.6364Z" fill="#0079C1"/>
<path d="M18.5753 15.9159V15.0216H14.7296V20.3077H15.8622V18.0613H18.2041V17.1671H15.8622V15.9159H18.5753Z" fill="#0079C1"/>
</svg>
