<?xml version="1.0" encoding="utf-8"?>
<!-- Generator: Adobe Illustrator 24.2.1, SVG Export Plug-In . SVG Version: 6.00 Build 0)  -->
<svg version="1.1" xmlns="http://www.w3.org/2000/svg" xmlns:xlink="http://www.w3.org/1999/xlink" x="0px" y="0px" viewBox="0 0 24 24" style="enable-background:new 0 0 24 24;" xml:space="preserve">
<g>
	<path d="M18.8,9.4l-6-6L12.3,4h0l0.5-0.5l-0.2-0.2h-0.3H7C5.5,3.2,4.2,4.5,4.2,6v12c0,1.5,1.2,2.8,2.8,2.8h0.7
		c0.4,0,0.8-0.3,0.8-0.8s-0.3-0.8-0.8-0.8H7c-0.7,0-1.2-0.6-1.2-1.2V6c0-0.7,0.6-1.2,1.2-1.2h4.6V8c0,1.5,1.2,2.8,2.8,2.8h3.2V18
		c0,0.7-0.6,1.2-1.2,1.2h-0.4c-0.4,0-0.8,0.3-0.8,0.8s0.3,0.8,0.8,0.8h0.4c1.5,0,2.8-1.2,2.8-2.8v-8V9.7L18.8,9.4z M13.1,8V5.8
		l3.4,3.4h-2.2C13.6,9.2,13.1,8.7,13.1,8z"/>
	<path d="M13.7,16.9l-1.1,1.2v-4.4c0-0.4-0.3-0.8-0.8-0.8c-0.4,0-0.8,0.3-0.8,0.8v4.4l-1.1-1.2c-0.3-0.3-0.8-0.3-1.1,0
		c-0.3,0.3-0.3,0.8,0,1.1l2.4,2.6l0.1-0.1l0,0l-0.1,0.1c0.1,0.1,0.3,0.2,0.5,0.2c0.2,0,0.4-0.1,0.5-0.2l2.4-2.6
		c0.3-0.3,0.3-0.8,0-1.1C14.4,16.6,14,16.6,13.7,16.9z"/>
</g>
</svg>
