<?xml version="1.0" encoding="utf-8"?>
<!-- Generator: Adobe Illustrator 24.2.1, SVG Export Plug-In . SVG Version: 6.00 Build 0)  -->
<svg version="1.1" xmlns="http://www.w3.org/2000/svg" xmlns:xlink="http://www.w3.org/1999/xlink" x="0px" y="0px" viewBox="0 0 24 24" style="enable-background:new 0 0 24 24;" xml:space="preserve">
<path d="M17.5,20.3H7c-1.5,0-2.8-1.2-2.8-2.8V11c0-0.4,0.3-0.8,0.8-0.8h1.2V5c0-0.4,0.3-0.8,0.8-0.8h10.5
	c0.4,0,0.8,0.3,0.8,0.8v5.2h1.2c0.4,0,0.8,0.3,0.8,0.8v6.5C20.2,19,19,20.3,17.5,20.3z M5.8,11.8v5.7c0,0.7,0.6,1.2,1.2,1.2h10.5
	c0.7,0,1.2-0.6,1.2-1.2v-5.7H5.8z M7.8,10.3h9V5.8h-9V10.3z M16.5,17.3H8c-0.4,0-0.8-0.3-0.8-0.8s0.3-0.7,0.8-0.7h8.5
	c0.4,0,0.8,0.3,0.8,0.7S16.9,17.3,16.5,17.3z"/>
</svg>
