<?xml version="1.0" encoding="utf-8"?>
<!-- Generator: Adobe Illustrator 24.2.1, SVG Export Plug-In . SVG Version: 6.00 Build 0)  -->
<svg version="1.1" xmlns="http://www.w3.org/2000/svg" xmlns:xlink="http://www.w3.org/1999/xlink" x="0px" y="0px" viewBox="0 0 24 24" style="enable-background:new 0 0 24 24;" xml:space="preserve">
<path d="M19.2,20c-0.2,0-0.4-0.1-0.5-0.2l-3.3-3.3c-1.2,1-2.7,1.6-4.4,1.6c-3.9,0-7-3.1-7-7c0-3.9,3.1-7,7-7
	c3.9,0,7,3.1,7,7c0,1.7-0.6,3.2-1.6,4.4l3.3,3.3c0.1,0.1,0.2,0.3,0.2,0.5s-0.1,0.4-0.2,0.5S19.4,20,19.2,20z M11,5.5
	C8,5.5,5.5,8,5.5,11c0,3,2.5,5.5,5.5,5.5c3,0,5.5-2.5,5.5-5.5C16.5,8,14,5.5,11,5.5z"/>
</svg>
