<svg width="40" height="41" viewBox="0 0 40 41" xmlns="http://www.w3.org/2000/svg">
<path fill-rule="evenodd" clip-rule="evenodd" d="M0 0.682617H40V40.6826H0V0.682617ZM24.186 27.6594H21.4065V22.9952H23.6149L23.9032 21.1282H21.4065C21.4065 21.1282 21.4065 19.0026 21.4065 18.7942C21.4147 18.7222 21.4378 18.6526 21.4744 18.5899C21.5109 18.5273 21.5602 18.4729 21.6189 18.4303C21.6776 18.3877 21.7445 18.3578 21.8154 18.3424C21.8863 18.3271 21.9596 18.3267 22.0307 18.3412C22.4391 18.3412 23.2446 18.3412 23.2446 18.3412L23.5349 16.4966C22.7913 16.4459 22.0451 16.4515 21.3023 16.5133C20.7844 16.5823 20.3109 16.8424 19.9749 17.2426C19.6578 17.6717 19.5008 18.1983 19.5311 18.731V21.1422L17.6707 21.1282V22.9952L19.5311 23.0017V27.6594H15.8102C15.0701 27.6594 14.3603 27.3653 13.8369 26.842C13.3136 26.3186 13.0195 25.6088 13.0195 24.8687V16.4966C13.0195 15.7564 13.3136 15.0466 13.8369 14.5232C14.3603 13.9999 15.0701 13.7059 15.8102 13.7059H24.1823C24.9224 13.7059 25.6323 13.9999 26.1556 14.5232C26.679 15.0466 26.973 15.7564 26.973 16.4966V24.8687C26.973 25.6082 26.6795 26.3174 26.1569 26.8407C25.6344 27.3639 24.9255 27.6584 24.186 27.6594V27.6594Z"/>
</svg>
