<svg width="40" height="41" viewBox="0 0 40 41" xmlns="http://www.w3.org/2000/svg">
<path fill-rule="evenodd" clip-rule="evenodd" d="M0 40.6826V0.682617H40V40.6826H0ZM26.6809 16.4873H24C23.8731 16.4959 23.7528 16.547 23.6586 16.6324C23.3594 16.8157 23.1207 17.0829 22.9721 17.4008C22.693 17.9589 22.0614 20.5496 21.7823 20.5691C21.7338 20.5819 21.683 20.583 21.634 20.5723C21.585 20.5615 21.5392 20.5393 21.5005 20.5074C21.4618 20.4755 21.4313 20.4349 21.4114 20.3888C21.3915 20.3428 21.3828 20.2927 21.386 20.2426V17.2129C21.3819 17.0481 21.322 16.8896 21.216 16.7634C21.11 16.6371 20.9643 16.5506 20.8028 16.518C20.5004 16.4724 19.1014 16.4724 18.5423 16.4956C18.3735 16.5064 18.2091 16.5536 18.0603 16.6339C17.9114 16.7141 17.7817 16.8256 17.68 16.9608C18.0884 17.1468 18.4128 17.4785 18.5898 17.891C18.5898 18.077 18.5898 19.5459 18.5898 19.9189C18.6171 20.0637 18.5861 20.2133 18.5035 20.3353C18.4209 20.4573 18.2934 20.5417 18.1488 20.5701C17.7135 20.5701 16.9117 19.0361 16.7479 18.7561C16.5842 18.4761 16.053 16.8845 15.9833 16.7905C15.9058 16.6602 15.7925 16.5549 15.6567 16.4873C15.4558 16.4873 13.3963 16.4873 13.2325 16.4873C13.0688 16.4873 13.0698 16.6045 13.0233 16.7663C13.1117 17.6598 13.3977 18.5225 13.8605 19.2919C14.6382 20.8417 16.3051 23.2705 17.7674 24.1794C18.5801 24.6771 19.526 24.9131 20.4772 24.8556C20.603 24.8621 20.7288 24.8427 20.8469 24.7987C20.9649 24.7547 21.0728 24.687 21.1637 24.5998C21.3409 24.2764 21.418 23.9076 21.3851 23.5403C21.373 23.0101 21.6381 22.9961 21.7777 22.9961C21.839 22.9904 21.9007 22.9996 21.9576 23.0231C22.0145 23.0466 22.0649 23.0837 22.1042 23.131C22.2205 23.2473 22.9963 24.1328 23.2056 24.3189C23.4628 24.5513 23.7639 24.73 24.0912 24.8445C24.254 24.8445 25.6874 24.8445 26.2698 24.8445C26.4419 24.8561 26.6124 24.8047 26.7494 24.6997C26.8864 24.5948 26.9804 24.4435 27.0139 24.2742C26.979 24.0757 26.8906 23.8904 26.7582 23.7384C26.6177 23.5989 25.1153 21.944 24.9283 21.7338C24.7766 21.5713 24.6769 21.3673 24.6419 21.1477C24.6752 20.9624 24.751 20.7873 24.8633 20.6361C24.9563 20.5189 26.7516 17.6259 26.9609 17.1608C27.0025 17.1011 27.0284 17.032 27.0362 16.9597C27.044 16.8875 27.0334 16.8144 27.0055 16.7473C26.9776 16.6801 26.9333 16.6211 26.8765 16.5757C26.8198 16.5302 26.7525 16.4998 26.6809 16.4873Z"/>
</svg>
