<svg width="40" height="41" viewBox="0 0 40 41" xmlns="http://www.w3.org/2000/svg">
<path fill-rule="evenodd" clip-rule="evenodd" d="M0 0.682617H40V40.6826H0V0.682617ZM19.773 18.7291C19.773 18.7291 19.9935 15.6147 22.1647 15.5877C23.9321 15.5645 24.2707 16.3673 24.2707 16.3673C24.8043 16.2043 25.2977 15.9311 25.7191 15.5654C25.681 16.0854 25.4728 16.5784 25.1265 16.9682C25.4627 16.9659 25.7879 16.848 26.0474 16.6342C25.9793 16.8853 25.8578 17.1187 25.6911 17.3184C25.5245 17.5181 25.3167 17.6795 25.0819 17.7915C25.1926 19.7387 24.6705 21.6696 23.5935 23.2956C22.0121 25.5924 19.1358 25.7635 17.5581 25.7831C16.2955 25.7084 15.066 25.3501 13.9609 24.7347C13.9609 24.7347 16.3544 24.7645 17.426 23.9812C16.5776 23.4011 15.7836 22.7451 15.0539 22.0212C15.343 22.0453 15.6341 22.016 15.9126 21.9347C15.1466 21.1244 14.4899 20.2175 13.9591 19.237C14.2554 19.296 14.5587 19.3117 14.8595 19.2836C14.8595 19.2836 13.4642 17.0184 14.1247 15.5487C14.1247 15.5524 16.4828 18.531 19.773 18.7291Z"/>
</svg>
