<svg width="42" height="42" viewBox="0 0 42 42" xmlns="http://www.w3.org/2000/svg">
<path fill-rule="evenodd" clip-rule="evenodd" d="M16.6047 13.6743H25.3954C27.0137 13.6743 28.3256 14.9862 28.3256 16.6045V25.3952C28.3256 27.0136 27.0137 28.3255 25.3954 28.3255H22.4739V23.4303H24.7927L25.0955 21.4699H22.4739V19.0193C22.4825 18.9436 22.5068 18.8706 22.5452 18.8048C22.5836 18.739 22.6353 18.6819 22.6969 18.6372C22.7585 18.5924 22.8288 18.561 22.9032 18.5449C22.9777 18.5288 23.0547 18.5283 23.1293 18.5436C23.561 18.5377 24.4069 18.5387 24.4069 18.5387L24.7116 16.6048C23.9309 16.5516 23.1473 16.5575 22.3675 16.6224C21.8236 16.6948 21.3264 16.9679 20.9736 17.3881C20.6407 17.8387 20.4758 18.3916 20.5077 18.9509V21.4826L18.5542 21.468V23.4283L20.5077 23.4352V28.3255H16.6047C14.9863 28.3255 13.6744 27.0136 13.6744 25.3952V16.6045C13.6744 14.9862 14.9863 13.6743 16.6047 13.6743Z"/>
</svg>
