<svg width="42" height="42" viewBox="0 0 42 42" xmlns="http://www.w3.org/2000/svg">
<path fill-rule="evenodd" clip-rule="evenodd" d="M21 28.3255C19.6188 28.322 18.2672 27.9256 17.1028 27.1827L13.6744 28.3255L14.8173 24.8961C13.9563 23.5221 13.5764 21.9009 13.7374 20.2874C13.8984 18.674 14.5913 17.1598 15.7069 15.983C16.8224 14.8063 18.2974 14.0337 19.9 13.7869C21.5026 13.54 23.1418 13.8329 24.5598 14.6194C25.9778 15.4059 27.094 16.6414 27.7331 18.1316C28.3722 19.6219 28.4978 21.2822 28.0902 22.8516C27.6826 24.4211 26.765 25.8105 25.4815 26.8014C24.198 27.7923 22.6215 28.3284 21 28.3255ZM22.5921 22.1095C23.0793 22.2687 23.575 22.4008 24.0768 22.505C24.1296 22.5128 24.1802 22.5312 24.2257 22.559C24.2712 22.5868 24.3107 22.6235 24.3417 22.6669C24.3727 22.7103 24.3947 22.7595 24.4062 22.8116C24.4178 22.8637 24.4186 22.9175 24.4088 22.97V23.2464C24.4137 23.3468 24.3951 23.4469 24.3544 23.5388C24.3137 23.6307 24.252 23.7119 24.1744 23.7758C23.9337 24.0202 23.6486 24.2164 23.3345 24.354C22.8709 24.4092 22.401 24.3682 21.954 24.2338C21.507 24.0994 21.0925 23.8743 20.7363 23.5726C20.2768 23.2649 19.8483 22.9132 19.4568 22.5226C19.0669 22.1288 18.7137 21.7002 18.4018 21.2421C18.1025 20.8857 17.8796 20.4717 17.7469 20.0256C17.6142 19.5795 17.5745 19.1109 17.6303 18.6489C17.7681 18.3364 17.9636 18.0528 18.2065 17.8128C18.2684 17.7336 18.349 17.6711 18.4411 17.6309C18.5332 17.5906 18.6339 17.5739 18.734 17.5823H19.0172C19.124 17.5675 19.2324 17.5957 19.3185 17.6607C19.4046 17.7257 19.4612 17.8222 19.4762 17.929C19.6228 18.5072 19.7302 18.9253 19.8767 19.3941C19.9353 19.5895 19.867 19.6364 19.7108 19.7536C19.6131 19.8288 19.5349 19.8835 19.4568 19.9421C19.4115 19.9617 19.3708 19.9906 19.3375 20.027C19.3041 20.0634 19.2787 20.1063 19.2631 20.1531C19.2474 20.1999 19.2418 20.2495 19.2466 20.2986C19.2514 20.3478 19.2664 20.3953 19.2907 20.4383C19.5402 20.9183 19.8594 21.3588 20.2381 21.7451C20.624 22.1246 21.0654 22.4431 21.5471 22.6897C21.5902 22.7136 21.6377 22.7284 21.6868 22.733C21.7359 22.7376 21.7854 22.732 21.8323 22.7164C21.8791 22.7009 21.9222 22.6759 21.9589 22.6428C21.9955 22.6098 22.0248 22.5696 22.0451 22.5246C22.1037 22.4455 22.1526 22.3722 22.2307 22.2696C22.243 22.2346 22.2623 22.2024 22.2872 22.1749C22.3122 22.1475 22.3424 22.1253 22.3761 22.1097C22.4098 22.0941 22.4463 22.0855 22.4834 22.0843C22.5205 22.0831 22.5575 22.0893 22.5921 22.1026V22.1095Z"/>
</svg>
