<svg width="40" height="41" viewBox="0 0 40 41" xmlns="http://www.w3.org/2000/svg">
<path fill-rule="evenodd" clip-rule="evenodd" d="M0 0.682617H40V40.6826H0V0.682617ZM20 21.1384C19.3568 21.1351 18.729 20.9414 18.1957 20.5816C17.6625 20.2219 17.2479 19.7122 17.004 19.117C16.7601 18.5218 16.698 17.8677 16.8255 17.2372C16.9531 16.6068 17.2645 16.0282 17.7205 15.5746C18.1765 15.1209 18.7566 14.8125 19.3877 14.6882C20.0188 14.5639 20.6726 14.6294 21.2665 14.8763C21.8605 15.1232 22.368 15.5405 22.725 16.0755C23.082 16.6106 23.2726 17.2394 23.2726 17.8826C23.2716 18.3113 23.1862 18.7356 23.0212 19.1313C22.8561 19.5269 22.6148 19.8862 22.3109 20.1886C22.007 20.4909 21.6465 20.7304 21.2499 20.8934C20.8534 21.0564 20.4287 21.1397 20 21.1384ZM20.0074 16.4538C19.7284 16.4565 19.4563 16.5418 19.2256 16.6989C18.9949 16.856 18.8159 17.0778 18.7111 17.3365C18.6062 17.5951 18.5802 17.879 18.6364 18.1524C18.6926 18.4258 18.8285 18.6764 19.0268 18.8727C19.2252 19.069 19.4773 19.2022 19.7512 19.2556C20.0252 19.3089 20.3088 19.28 20.5663 19.1724C20.8238 19.0648 21.0438 18.8835 21.1984 18.6511C21.3531 18.4188 21.4355 18.1459 21.4354 17.8668C21.4344 17.68 21.3966 17.4953 21.3241 17.3231C21.2516 17.151 21.146 16.9948 21.0131 16.8636C20.8802 16.7323 20.7227 16.6286 20.5497 16.5582C20.3766 16.4879 20.1914 16.4524 20.0047 16.4538H20.0074ZM17.2037 21.2203C17.5669 21.3526 17.9157 21.5215 18.2446 21.7245C18.7951 21.976 19.3949 22.1013 20 22.091C20.6239 22.0864 21.2423 21.9741 21.8279 21.7589C22.1544 21.5476 22.5023 21.3717 22.866 21.2342C23.0707 21.2417 23.4084 21.5812 23.3507 22.4594C23.3181 22.9608 22.4037 23.1673 22.0818 23.3589C21.8717 23.4732 21.6437 23.5509 21.4074 23.5887C21.4074 23.5887 22.1953 24.4315 22.3963 24.6389C22.8043 24.9362 23.112 25.351 23.2781 25.8277C23.225 26.054 23.1099 26.261 22.9455 26.4253C22.7812 26.5897 22.5742 26.7049 22.3479 26.758C21.8482 26.5017 21.4053 26.1474 21.0456 25.7161C20.5033 25.1989 20.0083 24.7217 20.0083 24.7217C20.0083 24.7217 19.5004 25.1738 18.9711 25.6966C18.6198 26.1295 18.1876 26.49 17.6986 26.758C17.4471 26.6932 17.2199 26.5567 17.0445 26.3651C16.8691 26.1735 16.7531 25.9351 16.7107 25.6789C17.0223 25.1613 17.4117 24.6948 17.8651 24.2956C18.0968 24.0442 18.3455 23.8089 18.6093 23.5915C18.4016 23.5627 18.2006 23.4972 18.0158 23.398C17.5684 23.1496 16.6102 22.8891 16.6353 22.4277C16.6512 21.9561 16.7758 21.2212 17.201 21.2203H17.2037Z"/>
</svg>
