<svg width="42" height="42" viewBox="0 0 42 42" xmlns="http://www.w3.org/2000/svg">
<path fill-rule="evenodd" clip-rule="evenodd" d="M22.4593 17.3567V20.538C22.4558 20.5905 22.4649 20.6431 22.4858 20.6915C22.5067 20.7398 22.5388 20.7825 22.5795 20.816C22.6201 20.8495 22.6681 20.8728 22.7195 20.8841C22.771 20.8954 22.8244 20.8942 22.8753 20.8808C23.1683 20.8603 23.8306 18.1459 24.1246 17.554C24.2806 17.2203 24.5313 16.9397 24.8454 16.7472C24.9444 16.6576 25.0707 16.6039 25.2039 16.5948H28.015C28.0908 16.6076 28.1622 16.6395 28.2224 16.6875C28.2825 16.7355 28.3294 16.798 28.3587 16.8691C28.388 16.9402 28.3988 17.0176 28.3899 17.0941C28.381 17.1705 28.3528 17.2434 28.308 17.3059C28.0882 17.7943 26.2031 20.832 26.1054 20.955C25.9878 21.1139 25.9086 21.2977 25.8739 21.4922C25.9124 21.7221 26.0185 21.9354 26.1787 22.1047C26.374 22.3254 27.9524 24.063 28.0999 24.2096C28.239 24.3692 28.3319 24.5637 28.3686 24.7721C28.3334 24.9499 28.2346 25.1087 28.0908 25.2189C27.947 25.3291 27.7679 25.3831 27.5872 25.3709C26.9757 25.3709 25.4715 25.3709 25.2996 25.3709C24.956 25.2507 24.6399 25.063 24.3698 24.819C24.15 24.6237 23.3354 23.6938 23.2133 23.5717C23.172 23.522 23.1192 23.4832 23.0594 23.4585C22.9997 23.4338 22.9348 23.4241 22.8704 23.4301C22.7239 23.4301 22.4456 23.4448 22.4583 24.0015C22.4932 24.3872 22.4122 24.7746 22.2258 25.114C22.1304 25.2055 22.0174 25.2765 21.8936 25.3226C21.7698 25.3688 21.6379 25.3892 21.506 25.3826C20.5069 25.4432 19.5133 25.1953 18.6597 24.6725C17.1223 23.7183 15.372 21.168 14.5574 19.5407C14.0715 18.7328 13.7712 17.827 13.6783 16.8888C13.7272 16.7169 13.7271 16.5958 13.899 16.5958C14.0709 16.5958 16.2325 16.5958 16.4386 16.5958C16.5815 16.6662 16.7007 16.7769 16.7815 16.9142C16.8547 17.0119 17.4134 18.6841 17.5843 18.9781C17.7552 19.2721 18.5982 20.8828 19.0553 20.8828C19.207 20.853 19.3409 20.7644 19.4276 20.6363C19.5144 20.5082 19.5469 20.351 19.5182 20.199C19.5182 19.8083 19.5182 18.2661 19.5182 18.0697C19.3324 17.6366 18.9919 17.2884 18.563 17.093C18.6698 16.9511 18.806 16.834 18.9623 16.7497C19.1186 16.6655 19.2913 16.6159 19.4685 16.6046C20.0545 16.5802 21.5245 16.5802 21.8419 16.628C22.0123 16.6613 22.1663 16.7516 22.2785 16.884C22.3907 17.0165 22.4545 17.1832 22.4593 17.3567V17.3567Z"/>
</svg>
