<svg width="40" height="41" viewBox="0 0 40 41" xmlns="http://www.w3.org/2000/svg">
<path fill-rule="evenodd" clip-rule="evenodd" d="M0 40.6826V0.682617H40V40.6826H0ZM26.9767 17.4268C26.9767 16.44 26.5847 15.4935 25.8869 14.7957C25.1891 14.0979 24.2427 13.7059 23.2558 13.7059H16.7442C15.7573 13.7059 14.8109 14.0979 14.1131 14.7957C13.4153 15.4935 13.0233 16.44 13.0233 17.4268V23.9384C13.0233 24.9253 13.4153 25.8717 14.1131 26.5695C14.8109 27.2673 15.7573 27.6594 16.7442 27.6594H23.2558C24.2427 27.6594 25.1891 27.2673 25.8869 26.5695C26.5847 25.8717 26.9767 24.9253 26.9767 23.9384V17.4268ZM23.2558 25.7989H16.7442C16.2508 25.7989 15.7776 25.6029 15.4287 25.254C15.0798 24.9051 14.8837 24.4319 14.8837 23.9384V17.4268C14.8837 16.9334 15.0798 16.4602 15.4287 16.1113C15.7776 15.7624 16.2508 15.5663 16.7442 15.5663H23.2558C23.7492 15.5663 24.2224 15.7624 24.5713 16.1113C24.9202 16.4602 25.1163 16.9334 25.1163 17.4268V23.9384C25.1163 24.4319 24.9202 24.9051 24.5713 25.254C24.2224 25.6029 23.7492 25.7989 23.2558 25.7989ZM20 17.4268C19.3561 17.4268 18.7266 17.6177 18.1911 17.9755C17.6557 18.3332 17.2384 18.8418 16.992 19.4367C16.7456 20.0316 16.6811 20.6862 16.8068 21.3178C16.9324 21.9494 17.2425 22.5295 17.6978 22.9848C18.1531 23.4402 18.7333 23.7502 19.3648 23.8759C19.9964 24.0015 20.651 23.937 21.246 23.6906C21.8409 23.4442 22.3494 23.0269 22.7071 22.4914C23.0649 21.956 23.2558 21.3266 23.2558 20.6826C23.2558 19.8191 22.9128 18.991 22.3022 18.3804C21.6916 17.7698 20.8635 17.4268 20 17.4268ZM20 22.078C19.724 22.078 19.4542 21.9961 19.2248 21.8428C18.9953 21.6895 18.8165 21.4716 18.7109 21.2166C18.6053 20.9616 18.5776 20.6811 18.6315 20.4104C18.6853 20.1397 18.8182 19.8911 19.0133 19.6959C19.2085 19.5008 19.4571 19.3679 19.7278 19.3141C19.9984 19.2602 20.279 19.2879 20.534 19.3935C20.789 19.4991 21.0069 19.6779 21.1602 19.9074C21.3135 20.1369 21.3953 20.4066 21.3953 20.6826C21.3953 21.0527 21.2483 21.4076 20.9867 21.6693C20.725 21.931 20.3701 22.078 20 22.078Z"/>
</svg>
