<svg width="42" height="42" viewBox="0 0 42 42" xmlns="http://www.w3.org/2000/svg">
<path fill-rule="evenodd" clip-rule="evenodd" d="M24.4186 27.3488H17.5814C16.5025 27.3038 15.4855 26.833 14.7532 26.0395C14.0208 25.246 13.6329 24.1945 13.6744 23.1155V18.8833C13.6334 17.8046 14.0215 16.7535 14.7538 15.9603C15.4861 15.1671 16.5028 14.6963 17.5814 14.6511H24.4186C25.4974 14.6963 26.5142 15.1672 27.2465 15.9606C27.9788 16.7541 28.3668 17.8054 28.3256 18.8843V23.1165C28.3668 24.1954 27.9788 25.2466 27.2465 26.0398C26.5141 26.8331 25.4973 27.3038 24.4186 27.3488ZM26.3721 18.8071C26.402 18.2578 26.2134 17.7188 25.8474 17.308C25.4814 16.8972 24.9678 16.6479 24.4186 16.6144H17.5814C17.0322 16.6479 16.5186 16.8972 16.1526 17.308C15.7866 17.7188 15.598 18.2578 15.6279 18.8071V23.1917C15.598 23.7411 15.7866 24.28 16.1526 24.6909C16.5186 25.1017 17.0322 25.3511 17.5814 25.3845H24.4186C24.9678 25.3511 25.4814 25.1017 25.8474 24.6909C26.2134 24.28 26.402 23.7411 26.3721 23.1917V18.8071ZM19.5349 18.5454L23.4418 20.9999L19.5349 23.4525V18.5454Z"/>
</svg>
