<svg width="42" height="42" viewBox="0 0 42 42" xmlns="http://www.w3.org/2000/svg">
<path fill-rule="evenodd" clip-rule="evenodd" d="M17.5814 13.6744H24.4186C25.4548 13.6744 26.4486 14.086 27.1813 14.8187C27.914 15.5514 28.3256 16.5452 28.3256 17.5814V24.4186C28.3256 25.4548 27.914 26.4485 27.1813 27.1812C26.4486 27.9139 25.4548 28.3255 24.4186 28.3255H17.5814C16.5452 28.3255 15.5515 27.9139 14.8188 27.1812C14.0861 26.4485 13.6744 25.4548 13.6744 24.4186V17.5814C13.6744 16.5452 14.0861 15.5514 14.8188 14.8187C15.5515 14.086 16.5452 13.6744 17.5814 13.6744ZM17.5814 15.6279H24.4186C24.9367 15.6279 25.4336 15.8337 25.7999 16.2C26.1663 16.5664 26.3721 17.0633 26.3721 17.5814V24.4186C26.3721 24.9367 26.1663 25.4335 25.7999 25.7999C25.4336 26.1662 24.9367 26.372 24.4186 26.372H17.5814C17.0633 26.372 16.5665 26.1662 16.2001 25.7999C15.8338 25.4335 15.6279 24.9367 15.6279 24.4186V17.5814C15.6279 17.0633 15.8338 16.5664 16.2001 16.2C16.5665 15.8337 17.0633 15.6279 17.5814 15.6279ZM21 17.5814C21.6762 17.5814 22.3371 17.7818 22.8993 18.1575C23.4615 18.5331 23.8997 19.0671 24.1584 19.6917C24.4171 20.3164 24.4848 21.0038 24.3529 21.6669C24.221 22.3301 23.8954 22.9392 23.4173 23.4173C22.9392 23.8954 22.3301 24.221 21.6669 24.3529C21.0038 24.4848 20.3164 24.4171 19.6918 24.1583C19.0671 23.8996 18.5332 23.4614 18.1575 22.8992C17.7819 22.337 17.5814 21.6761 17.5814 21C17.5814 20.0933 17.9416 19.2237 18.5827 18.5826C19.2238 17.9415 20.0933 17.5814 21 17.5814ZM21 19.5348C21.2898 19.5348 21.5731 19.6208 21.814 19.7818C22.0549 19.9428 22.2427 20.1716 22.3536 20.4393C22.4645 20.707 22.4935 21.0016 22.437 21.2858C22.3805 21.57 22.2409 21.8311 22.036 22.036C21.8311 22.2409 21.5701 22.3804 21.2859 22.4369C21.0017 22.4935 20.707 22.4645 20.4393 22.3536C20.1716 22.2427 19.9428 22.0549 19.7818 21.8139C19.6208 21.573 19.5349 21.2897 19.5349 21C19.5349 20.6114 19.6893 20.2387 19.964 19.964C20.2388 19.6892 20.6114 19.5348 21 19.5348Z"/>
</svg>
